<?xml version="1.0" encoding="UTF-8" standalone="no"?>
<!DOCTYPE svg PUBLIC "-//W3C//DTD SVG 1.1//EN" "http://www.w3.org/Graphics/SVG/1.1/DTD/svg11.dtd">
<svg width="100%" height="100%" viewBox="0 0 1182 1182" version="1.1" xmlns="http://www.w3.org/2000/svg" xmlns:xlink="http://www.w3.org/1999/xlink" xml:space="preserve" xmlns:serif="http://www.serif.com/" style="fill-rule:evenodd;clip-rule:evenodd;stroke-linejoin:round;stroke-miterlimit:2;">
    <g transform="matrix(1,0,0,1,-590.551181,-590.551181)">
        <g transform="matrix(2.16716,0,0,1.615735,-655.56599,-391.815763)">
            <rect x="575" y="608" width="545" height="731" style="fill:none;"/>
        </g>
        <g id="v2" transform="matrix(1.297244,0,0,1.263057,-382.402973,-244.78492)">
            <g transform="matrix(1,0,0,1,81,-151)">
                <rect x="906" y="849" width="514" height="728" style="fill:rgb(255,242,215);"/>
            </g>
            <g transform="matrix(1,0,-0.105754,0.183171,170.784853,1270.488072)">
                <rect x="906" y="849" width="514" height="728" style="fill:rgb(208,189,148);"/>
            </g>
            <g transform="matrix(1,0,-0.052877,0.091585,87.398096,1414.918172)">
                <rect x="906" y="849" width="514" height="728" style="fill:rgb(0,116,15);"/>
            </g>
            <g transform="matrix(-0.000987,-1.416166,0.10604,-0.183963,820.877671,2999.06573)">
                <rect x="906" y="849" width="514" height="728" style="fill:rgb(255,230,179);"/>
            </g>
            <g transform="matrix(-0.000987,-1.416166,0.053369,-0.092586,865.595834,2921.486753)">
                <rect x="906" y="849" width="514" height="728" style="fill:rgb(0,147,19);"/>
            </g>
            <g transform="matrix(0.770865,0,0,0.79173,138.85661,216.599063)">
                <path d="M1681.25,963.25C1671.75,969.25 1662.625,978.375 1653.875,990.625C1645.125,1002.875 1634.75,1021.25 1622.75,1045.75C1632.75,1051.75 1639.5,1057.875 1643,1064.125C1646.5,1070.375 1647.125,1075.875 1644.875,1080.625C1642.625,1085.375 1637.375,1089.125 1629.125,1091.875C1620.875,1094.625 1610,1096 1596.5,1096C1581.5,1095.5 1562.5,1095.875 1539.5,1097.125C1516.5,1098.375 1491.5,1100.25 1464.5,1102.75C1464,1115.25 1463.625,1127.75 1463.375,1140.25C1463.125,1152.75 1462.5,1165.75 1461.5,1179.25C1460,1209.25 1458.5,1234.25 1457,1254.25C1455.5,1274.25 1453.875,1291.25 1452.125,1305.25C1450.375,1319.25 1448.25,1331.5 1445.75,1342C1443.25,1352.5 1440.25,1363.25 1436.75,1374.25C1426.75,1403.75 1418,1417.875 1410.5,1416.625C1403,1415.375 1397,1401.75 1392.5,1375.75C1390,1359.25 1388.125,1343.75 1386.875,1329.25C1385.625,1314.75 1385,1297.25 1385,1276.75C1385,1243.25 1385.125,1213.5 1385.375,1187.5C1385.625,1161.5 1386,1136 1386.5,1111C1371,1113 1355.625,1114.5 1340.375,1115.5C1325.125,1116.5 1310,1117.5 1295,1118.5C1292,1139.5 1286.25,1152.125 1277.75,1156.375C1269.25,1160.625 1260,1157.75 1250,1147.75C1246,1143.75 1242.75,1140 1240.25,1136.5C1237.75,1133 1235.75,1128.875 1234.25,1124.125C1232.75,1119.375 1231.5,1113.625 1230.5,1106.875C1229.5,1100.125 1228.5,1091.75 1227.5,1081.75C1225.5,1059.75 1223,1041.625 1220,1027.375C1217,1013.125 1213,999.25 1208,985.75C1199.5,964.75 1191.5,950.75 1184,943.75C1166.5,928.75 1161.375,918.875 1168.625,914.125C1175.875,909.375 1194,909.25 1223,913.75C1227,914.75 1230.75,915.375 1234.25,915.625C1237.75,915.875 1241,916.5 1244,917.5C1254.5,916.5 1264.875,915.375 1275.125,914.125C1285.375,912.875 1296,911.5 1307,910C1318,908.5 1329.875,907 1342.625,905.5C1355.375,904 1370,902 1386.5,899.5C1386.5,878.5 1386.25,861 1385.75,847C1385.25,833 1384.375,821.25 1383.125,811.75C1381.875,802.25 1380,794.5 1377.5,788.5C1375,782.5 1372,777.25 1368.5,772.75C1347.5,745.75 1340,729 1346,722.5C1352,716 1374.25,718.25 1412.75,729.25C1431.25,734.75 1445.75,739.375 1456.25,743.125C1466.75,746.875 1474.25,751 1478.75,755.5C1483.25,760 1485,765.375 1484,771.625C1483,777.875 1480,785.75 1475,795.25C1471.5,801.75 1468.875,812.375 1467.125,827.125C1465.375,841.875 1464.75,862.5 1465.25,889C1484.75,886.5 1500.75,884.25 1513.25,882.25C1525.75,880.25 1535.875,878.5 1543.625,877C1551.375,875.5 1557.5,874 1562,872.5C1566.5,871 1570.5,869.5 1574,868C1582,864 1588.75,861.125 1594.25,859.375C1599.75,857.625 1605.125,857.375 1610.375,858.625C1615.625,859.875 1621.375,862.5 1627.625,866.5C1633.875,870.5 1642,876.5 1652,884.5C1667,896.5 1678.375,906.5 1686.125,914.5C1693.875,922.5 1698.75,929.25 1700.75,934.75C1702.75,940.25 1702,945.125 1698.5,949.375C1695,953.625 1689.25,958.25 1681.25,963.25ZM1576.25,937C1578.25,924 1571.25,918.25 1555.25,919.75C1546.25,920.75 1534,921.875 1518.5,923.125C1503,924.375 1485.5,926.25 1466,928.75C1467,951.75 1467.375,973.625 1467.125,994.375C1466.875,1015.125 1466.5,1036 1466,1057C1488.5,1054 1506.375,1051.5 1519.625,1049.5C1532.875,1047.5 1543.75,1045.75 1552.25,1044.25C1557.75,1029.25 1562.25,1013.25 1565.75,996.25C1569.25,979.25 1572.75,959.5 1576.25,937ZM1387.25,1066.75C1387.75,1047.75 1388,1027.875 1388,1007.125C1388,986.375 1387.75,963.5 1387.25,938.5C1368.75,941 1350.375,943.375 1332.125,945.625C1313.875,947.875 1296.75,950.25 1280.75,952.75C1284.25,968.75 1287.375,988.25 1290.125,1011.25C1292.875,1034.25 1294.75,1056.25 1295.75,1077.25C1313.25,1075.25 1329.625,1073.375 1344.875,1071.625C1360.125,1069.875 1374.25,1068.25 1387.25,1066.75Z" style="fill:rgb(211,0,0);fill-rule:nonzero;"/>
            </g>
        </g>
    </g>
</svg>
